<svg width="322.37" height="101.8" viewBox="0 0 322.37 101.8" xmlns="http://www.w3.org/2000/svg"><g id="svgGroup" stroke-linecap="round" fill-rule="evenodd" font-size="9pt" stroke="#000" stroke-width="0.25mm" fill="black" style="stroke:#000;stroke-width:0.25mm;fill:black"><path d="M 185.1 34.2 L 185.1 3 A 3.713 3.713 0 0 1 185.21 2.071 A 2.596 2.596 0 0 1 185.95 0.8 Q 186.8 0 188.1 0 Q 189.5 0 190.3 0.8 A 2.646 2.646 0 0 1 191.006 2.109 A 3.969 3.969 0 0 1 191.1 3 L 191.1 51.3 A 28.897 28.897 0 0 1 189.569 60.425 A 26.168 26.168 0 0 1 187.3 65.3 Q 183.6 71.5 177.35 75.1 A 27.154 27.154 0 0 1 165.629 78.612 A 33.077 33.077 0 0 1 163.2 78.7 A 30.079 30.079 0 0 1 154.282 77.413 A 26.624 26.624 0 0 1 148.85 75.05 Q 142.5 71.4 138.85 65.05 A 27.602 27.602 0 0 1 135.289 53.16 A 33.476 33.476 0 0 1 135.2 50.7 A 30.004 30.004 0 0 1 136.42 42.018 A 26.242 26.242 0 0 1 138.85 36.4 Q 142.5 30.1 148.85 26.45 A 27.602 27.602 0 0 1 160.74 22.889 A 33.476 33.476 0 0 1 163.2 22.8 A 28.708 28.708 0 0 1 171.227 23.889 A 25.02 25.02 0 0 1 176.15 25.9 A 24.017 24.017 0 0 1 182.726 31.014 A 22.271 22.271 0 0 1 185.1 34.2 Z M 0 51.3 L 0 3 A 3.713 3.713 0 0 1 0.11 2.071 A 2.596 2.596 0 0 1 0.85 0.8 Q 1.7 0 3 0 Q 4.4 0 5.2 0.8 A 2.646 2.646 0 0 1 5.906 2.109 A 3.969 3.969 0 0 1 6 3 L 6 34.2 A 22.945 22.945 0 0 1 14.154 26.346 A 27.357 27.357 0 0 1 14.95 25.9 A 26.044 26.044 0 0 1 25.251 22.909 A 31.678 31.678 0 0 1 27.9 22.8 A 30.079 30.079 0 0 1 36.818 24.087 A 26.624 26.624 0 0 1 42.25 26.45 Q 48.6 30.1 52.25 36.4 A 27.265 27.265 0 0 1 55.802 48.121 A 33.349 33.349 0 0 1 55.9 50.7 A 30.079 30.079 0 0 1 54.613 59.618 A 26.624 26.624 0 0 1 52.25 65.05 Q 48.6 71.4 42.25 75.05 A 27.602 27.602 0 0 1 30.36 78.611 A 33.476 33.476 0 0 1 27.9 78.7 Q 20.1 78.7 13.8 75.1 Q 7.5 71.5 3.85 65.3 A 28.049 28.049 0 0 1 0.104 53.225 A 33.684 33.684 0 0 1 0 51.3 Z M 69.9 53.3 L 69.9 26.4 A 3.256 3.256 0 0 1 70.074 25.317 A 2.806 2.806 0 0 1 70.75 24.25 A 2.871 2.871 0 0 1 72.697 23.405 A 3.82 3.82 0 0 1 72.9 23.4 A 3.256 3.256 0 0 1 73.984 23.574 A 2.806 2.806 0 0 1 75.05 24.25 A 2.871 2.871 0 0 1 75.895 26.197 A 3.82 3.82 0 0 1 75.9 26.4 L 75.9 53.3 A 27.42 27.42 0 0 0 76.289 58.05 Q 76.763 60.745 77.816 62.952 A 15.87 15.87 0 0 0 78.45 64.15 Q 81 68.5 85.35 70.65 A 20.766 20.766 0 0 0 92.197 72.63 A 25.871 25.871 0 0 0 95.2 72.8 A 23.835 23.835 0 0 0 100.89 72.145 A 19.911 19.911 0 0 0 104.9 70.7 A 18.767 18.767 0 0 0 109.321 67.741 A 16.345 16.345 0 0 0 111.7 65.05 Q 114.2 61.5 114.2 57 L 119.2 57 Q 118.8 63.2 115.5 68.15 Q 112.2 73.1 106.95 75.95 A 23.728 23.728 0 0 1 97.004 78.744 A 28.51 28.51 0 0 1 95.2 78.8 A 30.105 30.105 0 0 1 87.6 77.873 A 25.393 25.393 0 0 1 82.3 75.85 Q 76.6 72.9 73.25 67.2 A 23.454 23.454 0 0 1 70.541 59.997 Q 69.94 57.082 69.903 53.747 A 39.644 39.644 0 0 1 69.9 53.3 Z M 256 70.4 L 256 54.5 L 258.7 50.8 L 262 50.8 L 262 70.4 A 31.32 31.32 0 0 1 260.629 79.789 A 27.895 27.895 0 0 1 258.4 85 Q 254.8 91.5 248.6 95.25 A 26.129 26.129 0 0 1 236.688 98.926 A 31.86 31.86 0 0 1 234.5 99 Q 226.65 99 220.991 96.227 A 22.765 22.765 0 0 1 220.35 95.9 A 31.169 31.169 0 0 1 213.137 90.7 A 28.236 28.236 0 0 1 210.7 88 A 3.945 3.945 0 0 1 210.168 87.139 A 3.024 3.024 0 0 1 209.9 85.9 A 2.233 2.233 0 0 1 210.523 84.351 A 3.316 3.316 0 0 1 210.9 84 A 3.007 3.007 0 0 1 212.667 83.456 Q 212.906 83.456 213.157 83.487 A 4.36 4.36 0 0 1 213.25 83.5 A 3.066 3.066 0 0 1 214.332 83.861 A 2.769 2.769 0 0 1 215.3 84.8 A 23.866 23.866 0 0 0 220.906 89.647 A 28.91 28.91 0 0 0 223.2 90.95 A 21.904 21.904 0 0 0 229.499 92.996 A 29.603 29.603 0 0 0 234.5 93.4 Q 240.7 93.4 245.55 90.4 Q 250.4 87.4 253.2 82.15 A 23.999 23.999 0 0 0 255.932 72.401 A 28.896 28.896 0 0 0 256 70.4 Z M 283.2 97.8 L 316.8 25 Q 317.976 22.55 320.4 23.461 A 5.094 5.094 0 0 1 320.5 23.5 A 4.534 4.534 0 0 1 321.318 23.926 Q 322.992 25.05 322 27.2 L 288.4 100 A 4.992 4.992 0 0 1 287.919 100.788 Q 287.61 101.195 287.255 101.438 A 1.998 1.998 0 0 1 286.1 101.8 A 2.963 2.963 0 0 1 285.58 101.751 Q 285.175 101.678 284.7 101.5 A 4.534 4.534 0 0 1 283.882 101.074 Q 282.208 99.95 283.2 97.8 Z M 262 50.8 L 258.5 54.8 A 26.916 26.916 0 0 1 257.625 61.786 A 22.528 22.528 0 0 1 255.4 67.2 Q 252.3 72.6 246.8 75.65 A 24.246 24.246 0 0 1 238.068 78.452 A 30.879 30.879 0 0 1 234.1 78.7 A 31.74 31.74 0 0 1 225.98 77.699 A 26.333 26.333 0 0 1 219.6 75.1 Q 213.3 71.5 209.7 65.2 Q 206.1 58.9 206.1 50.8 A 30.898 30.898 0 0 1 207.144 42.624 A 25.926 25.926 0 0 1 209.8 36.3 Q 213.5 30 219.85 26.4 A 27.881 27.881 0 0 1 232.149 22.856 A 33.46 33.46 0 0 1 234.1 22.8 A 31.681 31.681 0 0 1 242.038 23.757 A 25.987 25.987 0 0 1 248.55 26.4 Q 254.8 30 258.4 36.3 Q 262 42.6 262 50.8 Z M 234.1 73.1 A 24.522 24.522 0 0 0 240.491 72.296 A 20.632 20.632 0 0 0 245.45 70.25 Q 250.4 67.4 253.2 62.35 Q 256 57.3 256 50.8 Q 256 44.2 253.2 39.15 Q 250.4 34.1 245.45 31.25 A 21.417 21.417 0 0 0 236.926 28.546 A 26.709 26.709 0 0 0 234.1 28.4 A 24.524 24.524 0 0 0 227.387 29.289 A 20.975 20.975 0 0 0 222.7 31.25 Q 217.7 34.1 214.9 39.15 A 22.275 22.275 0 0 0 212.322 47.21 A 28.315 28.315 0 0 0 212.1 50.8 A 25.775 25.775 0 0 0 212.89 57.297 A 21.532 21.532 0 0 0 214.9 62.35 Q 217.7 67.4 222.7 70.25 A 21.817 21.817 0 0 0 231.558 72.983 A 26.969 26.969 0 0 0 234.1 73.1 Z M 163.2 73.1 A 22.99 22.99 0 0 0 170.119 72.087 A 20.303 20.303 0 0 0 174.45 70.15 Q 179.4 67.2 182.25 62.15 A 22.188 22.188 0 0 0 185 53.053 A 27.156 27.156 0 0 0 185.1 50.7 A 24.524 24.524 0 0 0 184.211 43.987 A 20.975 20.975 0 0 0 182.25 39.3 Q 179.4 34.3 174.45 31.35 A 21.03 21.03 0 0 0 165.136 28.472 A 25.64 25.64 0 0 0 163.2 28.4 A 22.409 22.409 0 0 0 155.411 29.732 A 20.856 20.856 0 0 0 152 31.35 Q 147 34.3 144.1 39.3 A 21.597 21.597 0 0 0 141.302 48.349 A 26.631 26.631 0 0 0 141.2 50.7 A 24.192 24.192 0 0 0 142.169 57.649 A 21.149 21.149 0 0 0 144.1 62.15 Q 147 67.2 152 70.15 A 21.449 21.449 0 0 0 162.43 73.089 A 25.6 25.6 0 0 0 163.2 73.1 Z M 27.9 73.1 A 22.99 22.99 0 0 0 34.819 72.087 A 20.303 20.303 0 0 0 39.15 70.15 Q 44.1 67.2 47 62.15 A 21.958 21.958 0 0 0 49.814 52.86 A 26.812 26.812 0 0 0 49.9 50.7 A 24.106 24.106 0 0 0 48.983 43.943 A 20.774 20.774 0 0 0 47 39.3 Q 44.1 34.3 39.15 31.35 A 21.03 21.03 0 0 0 29.836 28.472 A 25.64 25.64 0 0 0 27.9 28.4 A 22.409 22.409 0 0 0 20.111 29.732 A 20.856 20.856 0 0 0 16.7 31.35 Q 11.7 34.3 8.85 39.3 A 21.817 21.817 0 0 0 6.118 48.158 A 26.969 26.969 0 0 0 6 50.7 A 24.587 24.587 0 0 0 6.953 57.649 A 21.347 21.347 0 0 0 8.85 62.15 Q 11.7 67.2 16.7 70.15 A 21.449 21.449 0 0 0 27.13 73.089 A 25.6 25.6 0 0 0 27.9 73.1 Z M 292.8 75.5 L 270.9 27.5 Q 270.5 26.633 270.5 25.9 A 2.423 2.423 0 0 1 270.6 25.2 A 2.16 2.16 0 0 1 271.227 24.226 Q 271.611 23.872 272.2 23.6 Q 273.067 23.2 273.8 23.2 A 2.423 2.423 0 0 1 274.5 23.3 A 2.16 2.16 0 0 1 275.474 23.927 Q 275.828 24.311 276.1 24.9 L 298 72.9 Q 298.4 73.767 298.4 74.5 A 2.423 2.423 0 0 1 298.3 75.2 A 2.16 2.16 0 0 1 297.673 76.174 Q 297.289 76.528 296.7 76.8 Q 295.833 77.2 295.1 77.2 A 2.423 2.423 0 0 1 294.4 77.1 A 2.16 2.16 0 0 1 293.426 76.473 Q 293.072 76.089 292.8 75.5 Z M 114.2 75.1 L 114.2 26.4 A 3.713 3.713 0 0 1 114.31 25.471 A 2.596 2.596 0 0 1 115.05 24.2 Q 115.9 23.4 117.2 23.4 Q 118.6 23.4 119.4 24.2 A 2.646 2.646 0 0 1 120.106 25.509 A 3.969 3.969 0 0 1 120.2 26.4 L 120.2 75.1 A 3.463 3.463 0 0 1 120.048 76.147 A 2.835 2.835 0 0 1 119.4 77.25 A 2.635 2.635 0 0 1 117.95 78.031 A 3.872 3.872 0 0 1 117.2 78.1 A 3.256 3.256 0 0 1 116.117 77.926 A 2.806 2.806 0 0 1 115.05 77.25 A 2.871 2.871 0 0 1 114.205 75.303 A 3.82 3.82 0 0 1 114.2 75.1 Z" vector-effect="non-scaling-stroke"/></g></svg>
